<?xml version="1.0" standalone="no"?>
<!DOCTYPE svg PUBLIC "-//W3C//DTD SVG 20010904//EN"
 "http://www.w3.org/TR/2001/REC-SVG-20010904/DTD/svg10.dtd">
<svg version="1.0" xmlns="http://www.w3.org/2000/svg"
 width="1000.000000pt" height="1000.000000pt" viewBox="0 0 1000.000000 1000.000000"
 preserveAspectRatio="xMidYMid meet">
<metadata>
Created by potrace 1.14, written by Peter Selinger 2001-2017
</metadata>
<g transform="translate(0.000000,1000.000000) scale(0.100000,-0.100000)"
fill="#000000" stroke="none">
<path d="M4708 9989 c-901 -51 -1781 -352 -2525 -861 -1014 -694 -1739 -1736
-2032 -2919 -103 -417 -145 -761 -145 -1209 0 -445 41 -792 145 -1209 298
-1206 1045 -2262 2089 -2958 1260 -839 2859 -1057 4305 -586 954 310 1786 896
2410 1698 532 682 888 1536 999 2397 56 426 56 890 0 1316 -181 1396 -963
2666 -2137 3470 -908 622 -2001 925 -3109 861z m932 -2769 c22 -11 40 -25 40
-30 0 -6 -31 -144 -70 -308 -89 -382 -88 -379 -100 -463 -17 -118 -11 -132 76
-173 307 -146 528 -407 610 -721 35 -134 45 -391 20 -535 -75 -430 -384 -803
-814 -982 -104 -44 -283 -93 -379 -103 l-59 -7 -87 -372 c-48 -204 -106 -456
-129 -561 -23 -104 -46 -196 -51 -202 -19 -26 -51 -13 -103 41 -43 44 -57 68
-76 128 -31 100 -31 281 0 418 12 52 43 196 69 320 l49 225 -56 13 c-329 75
-573 266 -710 555 -147 308 -144 708 8 1012 105 212 251 371 482 527 161 109
507 267 529 242 4 -5 22 -39 39 -76 l31 -67 -68 -46 c-215 -142 -407 -401
-471 -635 -48 -176 -63 -455 -35 -641 25 -167 92 -318 189 -426 54 -60 124
-110 135 -97 5 5 30 113 55 239 141 692 352 1665 524 2415 l38 165 129 82 c72
46 134 83 138 83 4 0 26 -9 47 -20z"/>
<path d="M5405 5908 c-29 -85 -375 -1673 -375 -1723 0 -22 89 -19 186 5 332
84 543 383 584 830 24 265 -25 480 -155 676 -76 114 -227 248 -240 212z"/>
</g>
</svg>
